<?xml version="1.0" standalone="no"?>
<!DOCTYPE svg PUBLIC "-//W3C//DTD SVG 20010904//EN"
 "http://www.w3.org/TR/2001/REC-SVG-20010904/DTD/svg10.dtd">
<svg version="1.0" xmlns="http://www.w3.org/2000/svg"  width="512.000000pt" height="512.000000pt" viewBox="0 0 512.000000 512.000000" preserveAspectRatio="xMidYMid meet"> <g transform="translate(0.000000,512.000000) scale(0.100000,-0.100000)" stroke="none">
<path d="M1990 4693 c-8 -3 -27 -17 -42 -31 l-28 -26 0 -227 0 -227 -77 -31 -77 -31 -151 150 c-154 154 -188 177 -244 164 -16 -4 -147 -127 -354 -333 -345 -344 -351 -352 -327 -416 6 -17 78 -98 161 -180 l149 -151 -31 -77 -31 -77 -227 0 -227 0 -30 -31 -29 -30 -3 -457 c-3 -475 -1 -491 40 -529 18 -16 46 -19 250 -23 l229 -5 30 -74 30 -74 -155 -156 c-157 -158 -175 -185 -161 -238 4 -19 118 -140 333 -355 l327 -328 48 0 c54 0 61 5 268 208 l107 104 73 -29 74 -30 5 -232 5 -233 28 -24 28 -24 470 0 c304 0 477 4 490 10 43 24 49 56 49 287 l0 218 76 28 76 29 157 -156 157 -156 54 0 54 0 328 328 328 328 0 54 0 54 -156 157 -156 157 29 76 28 76 218 0 c231 0 263 6 287 49 6 13 10 186 10 490 l0 470 -24 28 -24 28 -233 5 -232 5 -30 74 -29 73 139 142 c77 77 148 152 157 166 9 13 16 45 16 70 l0 45 -327 327 c-216 215 -337 329 -355 333 -54 14 -81 -4 -239 -161 l-156 -155 -74 30 -74 30 -5 229 c-5 246 -6 249 -61 278 -23 12 -105 14 -476 13 -246 0 -455 -3 -463 -6z m780 -420 c0 -261 -2 -256 131 -302 51 -18 123 -48 161 -67 70 -35 114 -42 151 -23 12 6 84 72 160 147 l137 137 220 -220 220 -220 -129 -130 c-70 -71 -136 -141 -145 -155 -26 -39 -19 -90 23 -181 22 -46 49 -113 61 -149 44 -130 44 -130 305 -130 l195 0 0 -315 0 -315 -211 0 -211 0 -27 -28 c-16 -15 -38 -57 -51 -97 -13 -39 -40 -108 -61 -154 -25 -53 -39 -99 -39 -124 0 -39 6 -47 147 -189 l148 -148 -223 -222 -222 -223 -148 148 c-143 141 -150 147 -189 147 -26 0 -71 -14 -125 -38 -45
-21 -114 -49 -153 -62 -39 -13 -82 -35 -97 -51 l-28 -27 0 -211 0 -211 -315 0 -315 0 0 195 c0 261 -1 264 -133 307 -34 11 -100 37 -146 59 -58 27 -97 39 -129 39 -44 0 -46 -2 -191 -145 l-147 -144 -219 219 -220 220 137 137 c75 76 141 148 147 160 19 37 12 81 -23 151 -19 38 -49 110 -67 161 -46 133 -41 131 -301 131 l-208 0 0 314 0 315 215 3 215 3 25 26 c14 14 39 61 55 106 15 45 45 116 64 158 59 127 60 124 -111 297 l-148 148 223 222 222 223 148 -148 c173 -171 170 -170 297 -111 42 19 113 49 158 64 45 16 92 41 106 55 l26 25 3 215 3 215 315 0 314 0 0 -207z"/> <path d="M2315 3406 c-160 -32 -271 -92 -391 -211 -77 -76 -98 -105 -137 -185 -65 -133 -81 -200 -81 -345 0 -140 16 -210 74 -330 96 -197 271 -340 485 -395 106 -27 273 -27 379 0 257 66 470 279 536 536 27 106 27 273 0 379 -40 155 -135 303 -258 401 -69 55 -195 117 -280 139 -89 22 -242 28 -327 11z m291 -236 c235 -76 387 -294 371 -535 -30 -452 -569 -657 -893 -340 -168 164 -204 432 -86 635 121 208 384 312 608 240z"/> </g>
</svg>
