<?xml version="1.0" standalone="no"?>
<!DOCTYPE svg PUBLIC "-//W3C//DTD SVG 20010904//EN"
 "http://www.w3.org/TR/2001/REC-SVG-20010904/DTD/svg10.dtd">
<svg version="1.0" xmlns="http://www.w3.org/2000/svg"
 width="512.000000pt" height="512.000000pt" viewBox="0 0 512.000000 512.000000"
 preserveAspectRatio="xMidYMid meet">
<g transform="translate(0.000000,512.000000) scale(0.100000,-0.100000)" stroke="none"><path d="M93 5070 c-12 -5 -26 -18 -32 -28 -7 -13 -8 -597 -4 -1837 6 -1748 7 -1819 25 -1837 18 -18 100 -18 2464 -16 l2446 3 20 25 21 25 -6 1815 -6 1815 -26 23 -26 22 -2427 -1 c-1373 0 -2436 -4 -2449 -9z m4767 -250 l0 -90 -2325 0 -2325 0 0 90 0 90 2325 0 2325 0 0 -90z m0 -340 l0 -80 -2325 0 -2325 0 0 80 0 80 2325 0 2325 0 0 -80z m0 -340 l0 -90 -2325 0 -2325 0 0 90 0 90 2325 0 2325 0 0 -90z m10 -1440 l0 -1180 -2325 0 -2325 0 0 1180 0 1180 2325 0 2325 0 0 -1180z"/>
<path d="M933 3625 c-18 -8 -33 -15 -33 -17 -8 -62 -33 -169 -49 -201 -48 -100 -149 -173 -253 -183 -67 -7 -106 -22 -118 -45 -13 -24 -13 -1004 0 -1028 12 -23 50 -38 115 -45 73 -9 147 -49 204 -111 52 -57 76 -113 87 -200 9 -68 18 -83 62 -95 26 -8 506 -10 1614 -8 l1577 3 22 21 c14 15 23 41 29 86 21 170 137 287 306 308 118 15 109 -32 109 555 0 586 9 540 -108 555 -167 21 -279 135 -302 310 -9 71 -18 86 -56 99 -23 8 -481 11 -1603 11 -1331 -1 -1576 -3 -1603 -15z m3111 -193 c10 -65 72 -176 133 -236 56 -57 162 -117 231 -131 l32 -7 0 -393 0 -393 -46 -11 c-167 -42 -311 -186 -356 -355 l-12 -46 -1492 0 -1491 0 -7 38 c-3 21 -22 71 -41 109 -60 120 -186 220 -318 254 l-47 11 0 393 0 393 38 7 c68 12 176 73 236 133 61 61 122 168 132 234 l7 38 1497 0 1497 0 7 -38z"/>
<path d="M2506 3179 c-17 -13 -26 -30 -26 -48 0 -21 -7 -29 -32 -39 -94 -34 -162 -140 -162 -251 1 -152 102 -262 256 -278 53 -5 68 -11 96 -39 34 -34 41 -70 22 -118 -11 -30 -65 -66 -98 -66 -56 0 -112 56 -112 113 0 13 -9 36 -21 51 -26 32 -84 36 -120 7 -20 -16 -24 -28 -23 -75 3 -102 73 -206 162 -238 22 -8 32 -18 32 -33 0 -33 41 -65 81 -65 40 0 79 33 79 66 0 13 11 24 33 32 93 34 161 140 161 251 -1 153 -101 262 -256 278 -54 5 -68 11 -97 40 -31 31 -33 37 -28 79 7 67 42 99 107 99 64 0 96 -29 109 -100 6 -31 18 -56 31 -67 29 -24 82 -23 111 1 20 16 24 28 23 75 -3 102 -73 206 -161 238 -26 10 -33 18 -33 39 0 34 -41 69 -80 69 -15 0 -39 -9 -54 -21z"/> <path d="M1273 3006 c-104 -34 -194 -114 -241 -214 -24 -50 -27 -69 -27 -162 0 -93 3 -111 27 -163 35 -74 121 -160 195 -195 52 -24 70 -27 163 -27 97 0 110 2 172 32 81 38 146 102 185 181 26 52 28 66 28 172 0 106 -2 120 -28 172 -39 79 -104 143 -185 181 -57 27 -80 32 -157 34 -57 2 -106 -2 -132 -11z m181 -160 c105 -32 161 -107 160 -216 -1 -114 -64 -194 -174 -220 -102 -25 -208 31 -256 134 -43 92 -23 178 57 250 69 62 130 77 213 52z"/> <path d="M3532 3001 c-219 -82 -322 -326 -224 -535 161 -344 663 -278 733 97 30 168 -64 353 -218 428 -68 32 -216 38 -291 10z m214 -160 c49 -23 107 -88 122 -140 40 -131 -37 -262 -170 -290 -111 -24 -218 45 -254 165 -51 169 141 338 302 265z"/> <path d="M2347 1208 c-30 -24 -37 -68 -37 -249 l0 -179 -105 0 c-99 0 -107 -2 -130 -25 -49 -48 -42 -62 176 -353 220 -293 255 -332 295 -332 38 0 67 33 297 340 189 251 199 266 193 299 -9 61 -32 71 -157 71 l-109 0 0 200 c0 187 -1 201 -20 220 -19 19 -33 20 -203 20 -131 0 -188 -4 -200 -12z m263 -342 c0 -180 1 -195 21 -220 19 -24 27 -26 90 -26 l69 0 -121 -161 c-101 -135 -123 -159 -134 -148 -8 8 -63 79 -124 159 l-110 145 73 3 c112 4 110 0 107 242 l-2 200 65 0 66 0 0 -194z"/></g>
</svg>
