<?xml version="1.0" standalone="no"?>
<!DOCTYPE svg PUBLIC "-//W3C//DTD SVG 20010904//EN"
 "http://www.w3.org/TR/2001/REC-SVG-20010904/DTD/svg10.dtd">
<svg version="1.0" xmlns="http://www.w3.org/2000/svg"  width="512.000000pt" height="512.000000pt" viewBox="0 0 512.000000 512.000000"  preserveAspectRatio="xMidYMid meet"> <g transform="translate(0.000000,512.000000) scale(0.100000,-0.100000)" stroke="none">
<path d="M896 5104 c-140 -27 -288 -88 -413 -170 -76 -49 -248 -223 -298 -299 -128 -196 -185 -389 -185 -625 0 -200 35 -344 124 -517 58 -112 125 -201 219 -290 136 -129 300 -221 484 -270 89 -25 114 -27 283 -27 170 0 193 2 285 27 386 104 688 407 793 795 23 88 26 114 26 282 1 172 -1 192 -27 284 -86 310 -285 559 -560 702 -177 92 -317 124 -526 123 -75 0 -167 -7 -205 -15z m454 -192 c327 -99 558 -327 657 -649 25 -80 27 -102 27 -253 0 -151 -2 -172 -27 -253 -97 -316 -328 -547 -642 -643 -83 -26 -103 -28 -255 -28 -151 0 -172 2 -253 27 -317 98 -539 317 -642 637 -37 114 -46 314 -20 441 72 358 362 653 721 733 99 22 345 16 434 -12z"/>
<path d="M1049 4671 c-16 -16 -29 -38 -29 -49 0 -15 -9 -21 -37 -26 -102 -16 -227 -107 -274 -198 -34 -66 -38 -178 -9 -246 38 -88 115 -146 253 -191 l67 -23 0 -169 0 -169 -25 10 c-51 19 -103 50 -144 84 -33 28 -52 36 -82 36 -54 0 -89 -35 -89 -86 0 -32 8 -45 49 -85 54 -52 187 -123 250 -134 31 -5 41 -11 41 -25 0 -11 11 -31 24 -47 34 -39 98 -39 132 0 13 16 24 36 24 46 0 13 13 21 53 30 103 23 214 109 260 201 31 63 31 197 0 256 -42 78 -148 150 -270 183 l-43 12 0 169 0 170 25 -10 c51 -19 103 -50 144 -84 33 -28 52 -36 82 -36 54 0 89 35 89 86 0 32 -8 45 -49 85 -53 51 -192 126 -252 135 -30 5 -39 11 -39 26 0 32 -54 78 -90 78 -22 0 -41 -9 -61 -29z m-32 -538 c-10 -9 -115 47 -135 72 -48 60 -15 139 78 188 l55 28 3 -142 c1 -78 1 -144 -1 -146z m263 -273 c54 -28 75 -56 75 -104 0 -60 -49 -116 -127 -145 l-28 -11 0 146 0 145 23 -7 c12 -3 38 -15 57 -24z"/>
<path d="M4153 3819 c-49 -24 -109 -87 -129 -135 -18 -44 -18 -155 1 -200 30 -71 81 -119 156 -144 l48 -17 -134 -133 -134 -134 -123 120 c-103 101 -131 122 -171 134 -69 19 -166 9 -219 -23 -24 -14 -203 -186 -398 -381 l-354 -356 -111 109 c-60 60 -128 118 -151 129 -62 31 -131 37 -200 17 -58 -16 -66 -23 -434 -391 l-375 -374 -235 235 c-275 276 -296 290 -414 283 -56 -4 -85 -11 -117 -31 -24 -14 -173 -155 -331 -314 -209 -210 -292 -300 -307 -333 -24 -54 -28 -164 -7 -214 19 -47 72 -104 120 -129 55 -29 184 -31 236 -3 19 10 122 104 228 209 l192 192 243 -242 c267 -267 289 -283 392 -283 108 0 116 7 517 407 l367 367 120 -116 c98 -94 130 -119 171 -133 65 -22 161 -17 212 10 20 11 202 183 404 383 l369 362 110 -110 c129 -128 168 -150 270 -150 114 0 130 12 402 283 167 166 243 235 243 222 1 -61 73 -154 145 -186 46 -21 139 -25 197 -7 51 15 121 77 147 131 20 41 21 59 21 410 0 293 -3 374 -14 401 -20 49 -81 112 -130 135 -40 20 -59 21 -412 21 -354 0 -371 -1 -411 -21z m764 -181 l23 -21 0 -331 c0 -325 0 -330 -22 -353 -30 -32 -77 -31 -109 3 -22 24 -24 35 -29 156 -5 121 -7 131 -29 149 -13 11 -39 19 -59 19 -34 0 -55 -19 -362 -325 -315 -314 -327 -325 -364 -325 -37 0 -48 9 -192 151 -150 148 -153 150 -192 147 -39 -3 -61 -23 -450 -405 -368 -362 -413 -403 -442 -403 -28 0 -52 19 -184 149 -83 82 -160 150 -171 151 -62 7 -65 4 -475 -405 -347 -346 -410 -405 -435 -405 -24 0 -72 43 -310 280 l-281 280 -44 0 c-43 0 -44 -1 -275 -230 -248 -247 -255 -252 -309 -209 -20 15 -26 29 -26 57 0 35 16 52 288 324 265 265 290 288 322 288 31 0 57 -23 315 -280 272 -271 282 -280 320 -280 38 0 49 10 445 404 223 222 415 407 427 411 12 3 33 1 45 -6 13 -6 89 -76 169 -155 137 -136 148 -144 184 -144 38 0 50 11 445 405 375 374 408 405 440 405 30 0 50 -16 186 -150 149 -148 152 -150 196 -150 l43 0 268 268 c250 251 267 270 267 304 0 20 -8 46 -19 59 -18 22 -28 24 -149 29 -121 5 -132 7 -156 29 -33 31 -34 76 -4 108 l21 23 331 0 c325 0 330 0 353 -22z"/>
<path d="M4188 2297 c-64 -20 -123 -70 -151 -128 l-27 -53 0 -965 c0 -953 0 -965 21 -1007 23 -49 86 -110 135 -130 48 -20 580 -20 628 0 49 20 112 81 135 130 21 42 21 54 21 1008 l0 966 -28 53 c-30 59 -95 111 -160 129 -52 14 -527 12 -574 -3z m541 -182 c16 -8 31 -22 35 -30 3 -9 6 -431 6 -938 l0 -921 -22 -23 c-21 -23 -23 -23 -267 -23 -237 0 -245 1 -268 22 l-23 21 0 927 c0 978 -2 943 45 968 33 18 459 16 494 -3z"/> <path d="M2904 1782 c-78 -28 -129 -74 -159 -146 -13 -30 -15 -142 -15 -741 0 -778 -3 -738 65 -813 71 -80 83 -82 405 -82 322 0 334 2 405 82 68 75 65 34 65 815 0 791 3 747 -71 822 -71 71 -93 76 -384 78 -228 3 -266 1 -311 -15z m555 -188 l31 -26 0 -671 0 -671 -22 -23 c-21 -23 -23 -23 -267 -23 -237 0 -245 1 -268 22 l-23 21 0 671 c1 512 4 675 13 687 27 35 50 38 279 39 l226 0 31 -26z"/>
<path d="M1593 1259 c-49 -24 -109 -87 -129 -135 -11 -27 -14 -120 -14 -486 0 -436 1 -453 21 -494 23 -49 86 -110 135 -130 48 -20 580 -20 628 0 49 20 112 81 135 130 20 41 21 58 21 496 0 438 -1 455 -21 496 -23 49 -86 110 -135 130 -26 11 -96 14 -316 14 -267 0 -285 -1 -325 -21z m594 -181 l23 -21 0 -416 c0 -412 0 -415 -22 -438 -21 -23 -23 -23 -267 -23 -237 0 -245 1 -268 22 l-23 21 0 416 c0 412 0 415 22 438 21 23 23 23 267 23 237 0 245 -1 268 -22z"/> <path d="M330 1097 c-49 -16 -133 -102 -148 -153 -8 -29 -12 -148 -12 -400 0 -405 0 -406 82 -479 70 -64 77 -65 388 -65 311 0 318 1 388 65 82 73 82 74 82 479 0 252 -4 371 -12 400 -16 55 -99 138 -154 154 -54 16 -563 15 -614 -1z m577 -189 l23 -21 0 -331 c0 -325 0 -330 -22 -353 -21 -23 -23 -23 -267 -23 -237 0 -245 1 -268 22 l-23 21 0 331 c0 325 0 330 22 353 21 23 23 23 267 23 237 0 245 -1 268 -22z"/> </g>
</svg>
