<?xml version="1.0" standalone="no"?>
<!DOCTYPE svg PUBLIC "-//W3C//DTD SVG 20010904//EN"
 "http://www.w3.org/TR/2001/REC-SVG-20010904/DTD/svg10.dtd">
<svg version="1.0" xmlns="http://www.w3.org/2000/svg"
 width="512.000000pt" height="512.000000pt" viewBox="0 0 512.000000 512.000000"
 preserveAspectRatio="xMidYMid meet">
<metadata>
Created by potrace 1.16, written by Peter Selinger 2001-2019
</metadata>
<g transform="translate(0.000000,512.000000) scale(0.100000,-0.100000)"
stroke="none">
<path d="M2559 5101 l-24 -19 -3 -437 -3 -436 30 -29 c20 -21 39 -30 61 -30
22 0 41 9 61 30 l30 29 -3 436 -3 437 -24 19 c-14 11 -39 19 -61 19 -22 0 -47
-8 -61 -19z"/>
<path d="M1929 4681 c-24 -19 -24 -21 -27 -245 l-3 -226 30 -30 c20 -21 39
-30 61 -30 22 0 41 9 61 30 l30 30 -3 226 c-3 224 -3 226 -27 245 -14 11 -39
19 -61 19 -22 0 -47 -8 -61 -19z"/>
<path d="M3185 4675 c-25 -24 -25 -24 -25 -239 0 -229 5 -256 47 -275 41 -19
73 -13 104 19 l30 30 -3 226 c-3 224 -3 226 -27 245 -34 28 -96 25 -126 -6z"/>
<path d="M2480 3999 c-336 -42 -637 -213 -834 -476 -376 -501 -319 -1194 134
-1627 167 -159 376 -267 607 -313 119 -23 347 -23 466 0 501 100 891 500 972
997 93 575 -216 1125 -751 1339 -175 70 -416 103 -594 80z m392 -203 c192 -49
358 -147 500 -294 140 -145 230 -315 270 -511 16 -79 19 -122 15 -241 -7 -216
-53 -364 -166 -537 -262 -396 -757 -569 -1199 -419 -332 113 -575 369 -678
713 -38 125 -45 345 -16 484 40 195 128 361 268 508 166 175 373 283 610 321
99 15 286 4 396 -24z"/>
<path d="M2562 3573 c-22 -9 -42 -61 -42 -112 0 -47 -2 -50 -29 -56 -45 -10
-135 -79 -169 -131 -49 -73 -65 -133 -60 -227 2 -62 10 -96 29 -137 54 -115
171 -195 305 -207 81 -7 133 -30 168 -76 71 -93 39 -225 -67 -276 -55 -27 -99
-27 -154 0 -58 28 -91 74 -106 147 -16 78 -38 102 -92 102 -31 0 -47 -6 -64
-24 -21 -22 -23 -33 -19 -93 7 -124 90 -245 203 -295 l53 -23 4 -64 c5 -75 27
-101 87 -101 60 1 91 38 91 112 l0 44 64 28 c76 32 155 110 189 183 18 39 22
66 22 148 0 88 -3 107 -27 157 -55 118 -162 191 -303 206 -45 5 -95 17 -112
26 -69 35 -112 129 -92 201 32 116 149 174 255 126 56 -25 92 -75 105 -147 15
-76 40 -104 91 -104 28 0 46 7 65 26 24 24 25 31 21 92 -5 74 -31 142 -75 197
-34 43 -114 99 -165 115 -37 11 -38 13 -38 56 0 48 -13 81 -39 101 -16 12 -75
16 -99 6z"/>
<path d="M389 1685 c-15 -8 -30 -22 -34 -32 -6 -17 -44 -1228 -45 -1441 0
-153 -9 -148 256 -156 115 -3 280 -9 366 -12 l157 -6 31 30 c24 25 30 39 30
75 0 25 6 49 13 54 6 6 58 34 114 63 164 84 125 88 753 -88 294 -83 562 -155
594 -161 86 -16 300 -14 393 4 101 19 211 57 277 94 126 71 1484 956 1510 983
37 40 31 81 -23 152 -96 128 -281 193 -436 153 -34 -9 -215 -88 -404 -178
-306 -144 -345 -160 -353 -145 -27 48 -100 124 -155 162 -130 89 -186 98 -688
113 -353 10 -348 9 -538 101 -149 72 -263 106 -408 122 -177 20 -388 -13 -553
-86 l-56 -25 0 83 c0 73 -3 86 -23 108 -24 25 -26 26 -233 32 -115 3 -279 9
-364 11 -126 4 -160 3 -181 -10z m619 -180 c1 -1 -5 -291 -15 -643 l-17 -641
-240 6 c-133 3 -243 7 -245 9 -2 2 4 270 13 596 9 326 16 614 16 640 l0 47
243 -6 c133 -3 243 -7 245 -8z m905 -134 c43 -11 141 -50 217 -86 210 -99 238
-104 605 -115 425 -13 451 -15 520 -41 81 -30 173 -121 202 -199 12 -30 20
-55 19 -56 0 0 -203 5 -451 13 -247 7 -460 11 -473 8 -37 -9 -62 -41 -62 -81
0 -46 13 -69 47 -82 17 -7 193 -15 433 -22 694 -18 634 -19 664 9 23 22 26 32
26 96 l0 72 313 148 c416 198 418 199 487 192 53 -4 140 -39 140 -55 0 -4
-316 -212 -703 -462 -646 -419 -710 -457 -797 -487 -125 -42 -268 -58 -382
-44 -52 6 -294 69 -622 161 -296 83 -566 154 -600 157 -83 7 -191 -17 -275
-62 l-64 -34 7 207 c3 114 9 304 12 423 l7 216 51 30 c88 53 202 92 336 117
60 11 267 -3 343 -23z"/>
</g>
</svg>
