<?xml version="1.0" standalone="no"?>
<!DOCTYPE svg PUBLIC "-//W3C//DTD SVG 20010904//EN"
 "http://www.w3.org/TR/2001/REC-SVG-20010904/DTD/svg10.dtd">
<svg version="1.0" xmlns="http://www.w3.org/2000/svg"  width="512.000000pt" height="512.000000pt" viewBox="0 0 512.000000 512.000000"  preserveAspectRatio="xMidYMid meet"> <g transform="translate(0.000000,512.000000) scale(0.100000,-0.100000)" stroke="none">
<path d="M398 4894 c-183 -44 -335 -194 -384 -379 -11 -41 -14 -400 -14 -1958 l0 -1908 25 -76 c60 -179 198 -306 377 -348 95 -22 4221 -22 4316 0 185 44 339 193 387 376 22 81 22 3837 0 3918 -35 134 -143 270 -262 330 -129 65 21 61 -2288 60 -1754 -1 -2109 -3 -2157 -15z m4304 -231 c63 -29 134 -96 166 -158 26 -48 27 -56 30 -247 l4 -198 -2342 0 -2342 0 4 198 c3 191 4 199 30 247 26 51 94 121 139 146 72 39 30 38 2184 36 l2080 -2 47 -22z m196 -2410 l-3 -1588 -27 -50 c-32 -62 -103 -129 -166 -158 l-47 -22 -2095 0 -2095 0 -47
22 c-63 29 -134 96 -166 158 l-27 50 -3 1588 -2 1587 2340 0 2340 0 -2 -1587z"/> <path d="M464 4465 c-30 -20 -48 -69 -41 -112 12 -71 78 -107 151 -83 48 16 66 44 66 106 0 42 -5 56 -26 78 -22 21 -36 26 -78 26 -29 0 -61 -6 -72 -15z"/> <path d="M879 4451 c-51 -52 -36 -146 29 -177 79 -37 162 15 162 102 0 37 -5 51 -29 75 -25 25 -37 29 -81 29 -44 0 -56 -4 -81 -29z"/> <path d="M1306 4454 c-21 -22 -26 -36 -26 -78 0 -62 18 -90 66 -106 98 -33 177 46 144 144 -16 48 -44 66 -106 66 -42 0 -56 -5 -78 -26z"/>
<path d="M1695 3410 c-68 -11 -144 -34 -197 -61 -21 -11 -51 -19 -68 -19 -53 0 -183 -30 -239 -56 -85 -38 -136 -86 -173 -162 -33 -66 -33 -68 -34 -214 -1 -145 -1 -148 -29 -184 -46 -61 -52 -93 -46 -264 7 -175 17 -202 90 -240 34 -17 41 -28 70 -108 17 -49 51 -120 75 -159 40 -65 42 -73 31 -99 -11 -27 -22 -32 -161 -68 -234 -61 -268 -73 -347 -126 -81 -54 -127 -104 -175 -190 -56 -102 -83 -244 -61 -328 12 -49 13 -50 63 -61 38 -9 330 -11 1138 -9 l1088 3 26 27 c34 34 41 98 20 195 -24 117 -68 197 -155 284 -99 99 -163 129 -405 194 -173 47 -192 54 -204 78 -12 25 -10 30 28 79 49 61 91 141 116 221 10 31 23 57 30 57 20 0 73 68 83 107 5 21 15 92 21 158 15 144 7 185 -45 235 -31 30 -35 40 -35 85 0 44 4 55 29 79 127 122 71 379 -106 483 -100 59 -283 85 -428 63z m285 -243 c47 -23 90 -81 90 -124 0 -11 -15 -39 -33 -61 -33 -39 -34 -45 -45 -169 -17 -183 -17 -187 19 -222 17 -17 40 -31 51 -31 19 0 20 -4 13 -77
-8 -90 -9 -93 -36 -93 -34 0 -79 -53 -79 -92 0 -91 -49 -206 -129 -306 -28 -35 -54 -75 -57 -88 -9 -35 1 -96 28 -179 19 -56 29 -73 56 -88 18 -11 121 -39 230 -63 217 -47 298 -80 365 -147 36 -36 76 -106 77 -134 0 -10 -195 -13 -940 -13 -517 0 -940 3 -940 8 0 21 65 115 102 147 72 63 148 91 378 143 210 46 215 48 236 80 28 41 64 195 64 272 0 53 -3 62 -40 106 -54 64 -95 151 -120 249 -21 83 -32 96 -84 105 -27 5 -31 11 -48 75 -9 39 -18 75 -18 80 1 6 18 18
39 28 54 24 65 57 57 160 -18 226 -18 241 1 277 33 63 137 100 280 100 45 0 67 5 86 20 82 65 298 84 397 37z"/> <path d="M3015 3176 c-46 -46 -45 -124 1 -167 l26 -24 798 0 798 0 26 24 c32 30 42 78 26 125 -23 70 31 66 -853 66 l-798 0 -24 -24z"/> <path d="M3015 2536 c-46 -46 -45 -124 1 -167 l26 -24 798 0 798 0 26 24 c46 43 47 121 1 167 l-24 24 -801 0 -801 0 -24 -24z"/> <path d="M3015 1896 c-46 -46 -45 -124 1 -167 l26 -24 798 0 798 0 26 24 c46 43 47 121 1 167 l-24 24 -801 0 -801 0 -24 -24z"/> <path d="M3015 1256 c-46 -46 -45 -124 1 -167 l26 -24 478 0 478 0 26 24 c46 43 47 121 1 167 l-24 24 -481 0 -481 0 -24 -24z"/> </g>
</svg>
