<?xml version="1.0" standalone="no"?>
<!DOCTYPE svg PUBLIC "-//W3C//DTD SVG 20010904//EN"
 "http://www.w3.org/TR/2001/REC-SVG-20010904/DTD/svg10.dtd">
<svg version="1.0" xmlns="http://www.w3.org/2000/svg"  width="512.000000pt" height="512.000000pt" viewBox="0 0 512.000000 512.000000"  preserveAspectRatio="xMidYMid meet"> <g transform="translate(0.000000,512.000000) scale(0.100000,-0.100000)"  stroke="none">
<path d="M1685 5104 c-521 -93 -940 -516 -1030 -1038 -19 -113 -20 -347 0 -457 53 -306 232 -597 488 -791 43 -33 77 -61 75 -63 -2 -1 -44 -20 -93 -42 -517 -226 -921 -707 -1069 -1273 -33 -126 -56 -287 -56 -394 l0 -86 164 0 163 0 6 112 c6 136 26 235 77 389 159 480 529 850 1009 1009 209 70 387 92 611 79 670 -42 1259 -528 1430 -1181 l23 -88 169 0 168 0 -4 23 c-79 369 -226 672 -452 930 -184 211 -457 404 -723 513 -23 10 -21 12 46 62 91 68 237 219 296 309 102 154 172 327 202 500 19 111 19 335 0 449 -67 391 -329 744 -685 924 -89 45 -246 96 -349 114 -117 20 -354 20 -466 0z m400 -325 c386 -65 705 -385 775 -776 8 -45 11 -119 8 -209 -6 -157 -29 -246 -98 -385 -129 -255 -376 -443 -665 -505 -81 -17 -274 -20 -355 -4 -350 67 -632 320 -745 670 -23 71 -28 108 -33 228 -3 89 0 166 7 205 36 187 119 351 250 489 222 236 536 341 856 287z"/> <path d="M4160 1280 l0 -320 -320 0 -320 0 0 -160 0 -160 320 0 320 0 0 -320 0 -320 160 0 160 0 0 320 0 320 320 0 320 0 0 160 0 160 -320 0 -320 0 0 320 0 320 -160 0 -160 0 0 -320z"/> </g>
</svg>
